<svg xmlns="http://www.w3.org/2000/svg" viewBox="0 0 868.35 868.61"><defs><style>.cls-1{fill:#176592;}.cls-2{fill:#1cb4bd;}.cls-3{fill:#f9b006;}.cls-4{fill:#fff;}.cls-5{fill:#232e3f;}.cls-6{fill:#818285;}</style></defs><g id="Capa_2" data-name="Capa 2"><g id="Capa_1-2" data-name="Capa 1"><g id="Grupo_204" data-name="Grupo 204"><g id="Grupo_203" data-name="Grupo 203"><g id="Trazado_119" data-name="Trazado 119"><path class="cls-1" d="M14.6,508.84a9.65,9.65,0,0,1-9.53-8.19C-31.3,263.74,131.86,41.4,368.78,5a436.35,436.35,0,0,1,65.58-5h.71A431.1,431.1,0,0,1,672.94,71.33a9.65,9.65,0,0,1-10.62,16.12A411.06,411.06,0,0,0,434.38,19.3a417.44,417.44,0,0,0-62.67,4.81C145.31,58.86-10.61,271.33,24.15,497.73a9.65,9.65,0,0,1-8.08,11A9.09,9.09,0,0,1,14.6,508.84Z"/></g><g id="Trazado_120" data-name="Trazado 120"><path class="cls-2" d="M435.23,868.61a442.12,442.12,0,0,1-55.64-3.53c-115.13-14.63-217.67-73.21-288.73-165A433.66,433.66,0,0,1,26,582.39a9.65,9.65,0,1,1,18.14-6.59,414.58,414.58,0,0,0,62,112.49C174,776,272,832,382,845.93S600.91,830.2,688.58,762.3a9.65,9.65,0,1,1,11.82,15.26C623.48,837.13,531,868.61,435.23,868.61Z"/></g><g id="Trazado_121" data-name="Trazado 121"><path class="cls-3" d="M747.53,730.71a9.65,9.65,0,0,1-7.11-16.17C894.79,545.86,883.26,282.91,714.7,128.4a9.65,9.65,0,0,1,13-14.23c176.39,161.7,188.46,436.87,26.9,613.4A9.61,9.61,0,0,1,747.53,730.71Z"/></g></g><g id="Elipse_38" data-name="Elipse 38"><circle class="cls-4" cx="434.06" cy="434.02" r="397.35"/></g><g id="Grupo_174" data-name="Grupo 174"><g id="Grupo_3" data-name="Grupo 3"><g id="Grupo_1" data-name="Grupo 1"><g id="Trazado_1" data-name="Trazado 1"><path class="cls-1" d="M437.32,517H417.81v64.11a11.78,11.78,0,0,1-2.47,8.22A8.28,8.28,0,0,1,409,592a8.39,8.39,0,0,1-6.47-2.71,11.72,11.72,0,0,1-2.5-8.18V517h-19.5a9.9,9.9,0,0,1-6.8-2,6.85,6.85,0,0,1-2.23-5.33,6.75,6.75,0,0,1,2.32-5.4,10,10,0,0,1,6.71-2h56.82a10.06,10.06,0,0,1,6.9,2,6.9,6.9,0,0,1,2.25,5.36,6.75,6.75,0,0,1-2.29,5.33A10.13,10.13,0,0,1,437.32,517Z"/></g><g id="Trazado_2" data-name="Trazado 2"><path class="cls-1" d="M467.54,568.27V582a10.54,10.54,0,0,1-2.35,7.49,7.77,7.77,0,0,1-6,2.5,7.49,7.49,0,0,1-5.83-2.53,10.75,10.75,0,0,1-2.29-7.46V536.25q0-11.09,8-11.08a6.66,6.66,0,0,1,5.9,2.59,14.26,14.26,0,0,1,2,7.65,28.61,28.61,0,0,1,6.05-7.65,12.53,12.53,0,0,1,8.27-2.59,21.22,21.22,0,0,1,10,2.59,7.72,7.72,0,0,1,4.88,6.86,6.57,6.57,0,0,1-2.08,5,6.45,6.45,0,0,1-4.49,2,20.54,20.54,0,0,1-4.36-1.12,20.22,20.22,0,0,0-6.11-1.11,9,9,0,0,0-5.9,1.89,12.22,12.22,0,0,0-3.55,5.63,39.57,39.57,0,0,0-1.75,8.88Q467.54,560.88,467.54,568.27Z"/></g><g id="Trazado_3" data-name="Trazado 3"><path class="cls-1" d="M543.69,582.72a50.41,50.41,0,0,1-11.52,6.95A32.21,32.21,0,0,1,519.68,592a23.76,23.76,0,0,1-11.11-2.5,18.31,18.31,0,0,1-7.38-6.77,17.62,17.62,0,0,1-2.58-9.27,16.59,16.59,0,0,1,4.27-11.5,21.41,21.41,0,0,1,11.74-6.38q1.56-.36,7.77-1.62T533,551.63q4.43-1.05,9.6-2.56a17.08,17.08,0,0,0-2.61-9.54,11.69,11.69,0,0,0-9.6-3,20,20,0,0,0-9.43,1.75,15.2,15.2,0,0,0-5.4,5.23c-1.51,2.32-2.57,3.85-3.19,4.61a5.23,5.23,0,0,1-4,1.11,7,7,0,0,1-4.78-1.78,5.8,5.8,0,0,1-2-4.54,13.94,13.94,0,0,1,3.07-8.43,22,22,0,0,1,9.57-6.74,43.31,43.31,0,0,1,16.22-2.65,45.86,45.86,0,0,1,17,2.56,15.84,15.84,0,0,1,8.76,8.11,35.48,35.48,0,0,1,2.56,14.69q0,5.79,0,9.81t-.09,9a32.89,32.89,0,0,0,1.54,9.65,30.18,30.18,0,0,1,1.54,6.47,6,6,0,0,1-2.37,4.61A8,8,0,0,1,554,592a7.32,7.32,0,0,1-5-2.38A35.42,35.42,0,0,1,543.69,582.72Zm-1.08-23.78a81.68,81.68,0,0,1-10.5,2.8q-6.9,1.49-9.55,2.17a13,13,0,0,0-5,2.7,6.94,6.94,0,0,0-2.41,5.63,8.29,8.29,0,0,0,2.83,6.35,10.47,10.47,0,0,0,7.4,2.62,19.28,19.28,0,0,0,9-2.14,14.25,14.25,0,0,0,6-5.51,25.18,25.18,0,0,0,2.23-12.28Z"/></g><g id="Trazado_4" data-name="Trazado 4"><path class="cls-1" d="M620.45,582.6V581a41.08,41.08,0,0,1-6.54,6.17,24.16,24.16,0,0,1-7,3.62,26.28,26.28,0,0,1-8.21,1.23,24.22,24.22,0,0,1-10.93-2.5,25.67,25.67,0,0,1-8.7-7.13,32.57,32.57,0,0,1-5.57-10.9,46.67,46.67,0,0,1-1.89-13.54,35.31,35.31,0,0,1,7.52-24A25,25,0,0,1,599,525.3a26.59,26.59,0,0,1,12,2.44,33.58,33.58,0,0,1,9.51,7.49V511a12.33,12.33,0,0,1,2-7.65,6.88,6.88,0,0,1,5.75-2.58,7.12,7.12,0,0,1,5.75,2.37,10.62,10.62,0,0,1,2,7v72.48a10.07,10.07,0,0,1-2.17,7,7.28,7.28,0,0,1-5.6,2.35,7.2,7.2,0,0,1-5.57-2.44A10,10,0,0,1,620.45,582.6Zm-32.33-24.13a27.93,27.93,0,0,0,2.08,11.38,15.77,15.77,0,0,0,5.69,7.07,14.09,14.09,0,0,0,7.88,2.38,14.61,14.61,0,0,0,7.92-2.26,15.58,15.58,0,0,0,5.72-6.92,28.2,28.2,0,0,0,2.14-11.65,27.47,27.47,0,0,0-2.14-11.29,17,17,0,0,0-5.79-7.22,13.82,13.82,0,0,0-8-2.5,13.46,13.46,0,0,0-8.07,2.56,16.4,16.4,0,0,0-5.5,7.33,29.1,29.1,0,0,0-2,11.11Z"/></g><g id="Trazado_5" data-name="Trazado 5"><path class="cls-1" d="M698.34,562.62H666.2a21.8,21.8,0,0,0,2.25,9.87,15.12,15.12,0,0,0,13.88,8.61,19.66,19.66,0,0,0,5.4-.69,17.8,17.8,0,0,0,4.73-2.17,36.13,36.13,0,0,0,4.21-3.16c1.29-1.13,3-2.65,5-4.58a5.38,5.38,0,0,1,3.61-1.08,6,6,0,0,1,4.1,1.38,4.94,4.94,0,0,1,1.56,3.92,10.71,10.71,0,0,1-1.74,5.2,20.55,20.55,0,0,1-5.27,5.72,29.94,29.94,0,0,1-8.85,4.54A38,38,0,0,1,682.83,592a32.75,32.75,0,0,1-24.62-9,33.6,33.6,0,0,1-8.79-24.5A40.85,40.85,0,0,1,651.59,545a29.7,29.7,0,0,1,6.32-10.68,27.47,27.47,0,0,1,10.23-6.84,36.74,36.74,0,0,1,13.48-2.37,31.93,31.93,0,0,1,16.53,4.06,26.78,26.78,0,0,1,10.32,10.5,27.58,27.58,0,0,1,3.43,13.13q0,6.19-3.55,8A22.21,22.21,0,0,1,698.34,562.62Zm-32.14-9.33H696a20,20,0,0,0-4.55-12.61,13.61,13.61,0,0,0-10.39-4.19A13.2,13.2,0,0,0,671,540.74,21.06,21.06,0,0,0,666.2,553.29Z"/></g></g><g id="Grupo_2" data-name="Grupo 2"><g id="Trazado_6" data-name="Trazado 6"><path class="cls-5" d="M223,528.61a16.13,16.13,0,0,1,1.29-2.38q1.49-2.67,2.47-4.55a104.7,104.7,0,0,1,31.39-5.3,39,39,0,0,1,8.88,1,14,14,0,0,1,6.54,3.32,15.08,15.08,0,0,1,3.86,6.83,61.89,61.89,0,0,1,2.22,11l1.16,8.91,3.32,23a176.69,176.69,0,0,0,4.15,21.89A169.79,169.79,0,0,0,266,600.1q0-5.6-1.58-30.4-9.25-.6-12.58-.6-3.56.15-9.38.48l-10.86.61q-18.81,20.74-30.35,27.48a43.76,43.76,0,0,1-21.83,6.79,25.63,25.63,0,0,1-16.24-5,13.38,13.38,0,0,1-6.39-10.25,21.28,21.28,0,0,1,6.68-13.46,60,60,0,0,1,17.48-12.92,56.41,56.41,0,0,1,25.8-5.5q3.56,0,6.8.2t7.34.64c2.72.3,5.48.64,8.29,1l9.95-14.41q2.93-4.25,11.68-19.46-5.84.15-12.94,1T223,528.61Zm-41.59,43.57a19,19,0,0,0-3.86,10.94,9.37,9.37,0,0,0,3.81,8.32,15.61,15.61,0,0,0,9.06,2.63,81.08,81.08,0,0,0,11-1q.24-.45,5.79-6.34,5-5.36,15.29-17.13-24.45.86-41.08,2.62ZM238,560.5q3.81.43,10.74,1.7t15.06,2.95a309.62,309.62,0,0,0-6.15-33.52A281,281,0,0,1,238,560.5Z"/></g><g id="Trazado_7" data-name="Trazado 7"><path class="cls-5" d="M318.48,526.64v52.52h10.39v13.12H301.41V526.63Z"/></g><g id="Trazado_8" data-name="Trazado 8"><path class="cls-5" d="M374,526.64l-12.45,41.9V592.3H345.68V568.54l-12-41.9h15.68q3.67,19.23,4.15,25.87,1.41-10.51,4.75-25.87Z"/></g></g></g><g id="Grupo_8" data-name="Grupo 8"><g id="Rectángulo_1" data-name="Rectángulo 1"><rect class="cls-2" x="278.65" y="332.87" width="3.05" height="99.63"/></g><g id="Rectángulo_2" data-name="Rectángulo 2"><rect class="cls-2" x="570.25" y="371.16" width="3.05" height="91.59"/></g><g id="Grupo_4" data-name="Grupo 4"><g id="Trazado_9" data-name="Trazado 9"><path class="cls-2" d="M571.78,386.07h0c-6.81,0-12.35,3.51-12.35,7.83v47.39c0,4.32,5.52,7.82,12.35,7.82h0c6.81,0,12.35-3.5,12.35-7.82V393.9C584.11,389.58,578.59,386.07,571.78,386.07Z"/></g></g><g id="Grupo_5" data-name="Grupo 5"><g id="Rectángulo_3" data-name="Rectángulo 3"><path class="cls-2" d="M280.05,349h0a12.33,12.33,0,0,1,12.33,12.33v42.32A12.34,12.34,0,0,1,280.05,416h0a12.35,12.35,0,0,1-12.34-12.34V361.34A12.34,12.34,0,0,1,280.05,349Z"/></g></g><g id="Rectángulo_4" data-name="Rectángulo 4"><rect class="cls-1" x="314.69" y="388.61" width="3.05" height="84.72"/></g><g id="Rectángulo_5" data-name="Rectángulo 5"><rect class="cls-1" x="606.8" y="317.33" width="3.05" height="92.37"/></g><g id="Grupo_6" data-name="Grupo 6"><g id="Trazado_10" data-name="Trazado 10"><path class="cls-1" d="M316.22,394.14h0c-6.81,0-12.35,4.41-12.35,9.84v41.4c0,5.43,5.52,9.84,12.35,9.84h0c6.81,0,12.35-4.41,12.35-9.84V404C328.56,398.54,323,394.14,316.22,394.14Z"/></g></g><g id="Grupo_7" data-name="Grupo 7"><g id="Trazado_11" data-name="Trazado 11"><path class="cls-1" d="M608.32,342h0c-6.81,0-12.35,2.8-12.35,6.26v50.61c0,3.47,5.53,6.26,12.35,6.26h0c6.82,0,12.36-2.81,12.36-6.26V348.26C620.66,344.81,615.14,342,608.32,342Z"/></g></g></g><g id="Grupo_11" data-name="Grupo 11"><g id="Trazado_12" data-name="Trazado 12"><path class="cls-5" d="M461.18,430.73a70,70,0,0,1-29.32,2.64l-2.93,15.95a85.4,85.4,0,0,0,36.48-2.95Z"/></g><g id="Trazado_13" data-name="Trazado 13"><path class="cls-5" d="M507.57,382a69.56,69.56,0,0,1-39.76,46.24l5.82,15.14A85.84,85.84,0,0,0,523,387.19Z"/></g><g id="Grupo_9" data-name="Grupo 9"><g id="Trazado_14" data-name="Trazado 14"><path class="cls-1" d="M371,364.48a70.06,70.06,0,0,1,.6-9.15l-16.1-1.83a86.54,86.54,0,0,0,1,28.22L372.3,378A70,70,0,0,1,371,364.48Z"/></g><g id="Trazado_15" data-name="Trazado 15"><path class="cls-1" d="M424,280.45a84.8,84.8,0,0,0-11.43,3.05l6.28,15a68.35,68.35,0,0,1,8.3-2.15Z"/></g><g id="Trazado_16" data-name="Trazado 16"><path class="cls-1" d="M373.38,382.57c-.12-.43-.24-.87-.34-1.31L357.28,385c.13.55.28,1.1.42,1.65Z"/></g><g id="Trazado_17" data-name="Trazado 17"><path class="cls-1" d="M375.68,389.6l-15,6.06A85.65,85.65,0,0,0,381,426.15l11.54-11.37A69.45,69.45,0,0,1,375.68,389.6Z"/></g><g id="Trazado_18" data-name="Trazado 18"><path class="cls-1" d="M442.66,295.11a69.41,69.41,0,0,1,58.63,36l13.89-8.31a85.59,85.59,0,0,0-72.93-43.95Z"/></g><g id="Trazado_19" data-name="Trazado 19"><path class="cls-1" d="M509.8,364.48a69.29,69.29,0,0,1-.83,10.77l16,2.66a86.23,86.23,0,0,0,1-13.43c0-.63,0-1.26,0-1.89H509.76C509.79,363.22,509.8,363.85,509.8,364.48Z"/></g><g id="Trazado_20" data-name="Trazado 20"><path class="cls-1" d="M519.25,331.1l-14.94,6.26a69.22,69.22,0,0,1,5.06,19.28l16-2.19A85.07,85.07,0,0,0,519.25,331.1Z"/></g><g id="Trazado_21" data-name="Trazado 21"><path class="cls-1" d="M425.19,432.22c-1.16-.26-2.3-.55-3.43-.87l-5.51,15.28q2.55.76,5.18,1.35Z"/></g><g id="Trazado_22" data-name="Trazado 22"><path class="cls-1" d="M407.81,303.19a66.64,66.64,0,0,1,7.84-3.57l-6.27-14.95a87,87,0,0,0-10.31,4.82Z"/></g><g id="Trazado_23" data-name="Trazado 23"><path class="cls-1" d="M372.11,352a69.49,69.49,0,0,1,32.74-47.12l-8.72-13.67A85.7,85.7,0,0,0,356,350.14Z"/></g><g id="Trazado_24" data-name="Trazado 24"><path class="cls-1" d="M407.41,425.56a69.64,69.64,0,0,1-6.13-3.74L391.81,435a86.2,86.2,0,0,0,7.49,4.63Z"/></g><g id="Trazado_25" data-name="Trazado 25"><path class="cls-1" d="M418.51,430.36a67.2,67.2,0,0,1-8.08-3.26l-8.1,14.06A84.55,84.55,0,0,0,413,445.61Z"/></g><g id="Trazado_26" data-name="Trazado 26"><path class="cls-1" d="M438.87,278.89a87.33,87.33,0,0,0-11.53,1l3.16,15.92a67.9,67.9,0,0,1,8.78-.69Z"/></g></g><g id="Grupo_10" data-name="Grupo 10"><g id="Trazado_27" data-name="Trazado 27"><path class="cls-1" d="M440.81,460.78a96.41,96.41,0,0,1-64.38-168.29,1.93,1.93,0,0,1,2.57,2.88,92.54,92.54,0,1,0,26.58-16.64,1.93,1.93,0,1,1-1.46-3.57,96.41,96.41,0,1,1,36.69,185.62Z"/></g><g id="Trazado_28" data-name="Trazado 28"><path class="cls-1" d="M440.43,466a101.7,101.7,0,0,1,.12-203.4,1.93,1.93,0,0,1,0,3.86,97.84,97.84,0,1,0,90.69,134.58,1.93,1.93,0,1,1,3.58,1.44A101.88,101.88,0,0,1,440.43,466Z"/></g><g id="Trazado_29" data-name="Trazado 29"><path class="cls-1" d="M440.49,473.48A108.73,108.73,0,0,1,367,444.83a1.93,1.93,0,0,1,2.6-2.86,105.16,105.16,0,0,0,143.9-153.36,1.93,1.93,0,0,1,2.69-2.78,109.23,109.23,0,0,1-75.72,187.65Z"/></g></g><g id="Trazado_30" data-name="Trazado 30"><path d="M463,350.17a61.89,61.89,0,0,1-14.54,9.51L442,348.52l-9.36,16.21c-.68.13-1.34.24-2,.34h0l-.2,0-.22,0a75.54,75.54,0,0,1-11.92.95c-2.47,0-5-.13-7.45-.37l20.53-35.56L442,311.78l10.61,18.38,11.15,19.3C463.43,349.74,463.17,350,463,350.17Z"/></g><g id="Trazado_31" data-name="Trazado 31"><path d="M462.72,384.45h0L458,376.24q3.27-3.09,6.26-6.48a99.76,99.76,0,0,0,6.5-8.16l23,39.91Z"/></g><g id="Trazado_32" data-name="Trazado 32"><path class="cls-3" d="M485.43,316.79c-4,38.45-33.64,71.41-71.29,81.25l-.18,0a107,107,0,0,1-23.2,3.34l1.43-2.47a105,105,0,0,0,22.43-3.29l.17-.05c37-9.71,65.89-42.85,70.65-78.83Z"/></g><g id="Trazado_33" data-name="Trazado 33"><path class="cls-6" d="M485.54,315.83c-4.36,36.36-33.44,70-70.75,79.79l-.18,0a104.31,104.31,0,0,1-23,3.32L409.49,368a78.64,78.64,0,0,0,21.12-.49l.42-.07a67,67,0,0,0,15.83-4.42A64.24,64.24,0,0,0,464.59,352a67,67,0,0,0,9.65-10.94A87.85,87.85,0,0,0,485.54,315.83Z"/></g><g id="Trazado_34" data-name="Trazado 34"><path d="M445,360.59h-4.42v-7.65Z"/></g><g id="Trazado_35" data-name="Trazado 35"><path class="cls-6" d="M440.58,352.94v7.65h-4.42Z"/></g></g></g></g></g></g></svg>