<svg id="Capa_1" data-name="Capa 1" xmlns="http://www.w3.org/2000/svg" viewBox="0 0 524 334"><defs><style>.cls-1{fill:#fff;}</style></defs><path class="cls-1" d="M266.62,240.49H249v58.06q0,5-2.23,7.44a7.5,7.5,0,0,1-5.78,2.43,7.58,7.58,0,0,1-5.86-2.46q-2.27-2.44-2.27-7.41V240.49H215.15c-2.76,0-4.82-.61-6.16-1.83a6.78,6.78,0,0,1,.08-9.73,9.1,9.1,0,0,1,6.08-1.8h51.47q4.19,0,6.24,1.86a6.23,6.23,0,0,1,2,4.85,6.1,6.1,0,0,1-2.07,4.82Q270.76,240.49,266.62,240.49Z"/><path class="cls-1" d="M294,286.94v12.43q0,4.53-2.12,6.79a7.12,7.12,0,0,1-5.4,2.26,6.8,6.8,0,0,1-5.29-2.29q-2.07-2.29-2.07-6.76V257.94q0-10,7.25-10c2.47,0,4.25.79,5.34,2.35s1.69,3.87,1.8,6.92a26,26,0,0,1,5.48-6.92,11.34,11.34,0,0,1,7.5-2.35,19.22,19.22,0,0,1,9.1,2.35q4.43,2.34,4.42,6.21a5.92,5.92,0,0,1-1.88,4.5,5.85,5.85,0,0,1-4.06,1.77,18.21,18.21,0,0,1-4-1,18.39,18.39,0,0,0-5.53-1,8.11,8.11,0,0,0-5.34,1.71,11.06,11.06,0,0,0-3.22,5.1,35.64,35.64,0,0,0-1.58,8Q294,280.24,294,286.94Z"/><path class="cls-1" d="M363,300a46.17,46.17,0,0,1-10.44,6.3,29.15,29.15,0,0,1-11.31,2.1,21.53,21.53,0,0,1-10.06-2.26,16.57,16.57,0,0,1-6.68-6.14,15.94,15.94,0,0,1-2.35-8.39A15,15,0,0,1,326,281.21a19.29,19.29,0,0,1,10.63-5.77c.94-.22,3.29-.71,7-1.48s7-1.46,9.62-2.1,5.57-1.4,8.7-2.31q-.29-5.9-2.37-8.64t-8.7-2.76q-5.67,0-8.53,1.58a13.88,13.88,0,0,0-4.91,4.75,49.67,49.67,0,0,1-2.89,4.17c-.56.67-1.77,1-3.62,1a6.36,6.36,0,0,1-4.34-1.61,5.23,5.23,0,0,1-1.82-4.12,12.55,12.55,0,0,1,2.78-7.63,19.89,19.89,0,0,1,8.66-6.11,39.09,39.09,0,0,1,14.67-2.4q9.81,0,15.43,2.32a14.36,14.36,0,0,1,7.93,7.33q2.33,5,2.32,13.31,0,5.24,0,8.88t-.08,8.13a29.89,29.89,0,0,0,1.39,8.75,27.37,27.37,0,0,1,1.39,5.86,5.52,5.52,0,0,1-2.15,4.17,7.26,7.26,0,0,1-4.88,1.88,6.6,6.6,0,0,1-4.53-2.15A32,32,0,0,1,363,300Zm-1-21.53a74.67,74.67,0,0,1-9.52,2.53q-6.24,1.34-8.64,2a11.66,11.66,0,0,0-4.58,2.45,6.31,6.31,0,0,0-2.18,5.1,7.58,7.58,0,0,0,2.56,5.75,9.5,9.5,0,0,0,6.71,2.37,17.47,17.47,0,0,0,8.15-1.94,12.85,12.85,0,0,0,5.48-5c1.34-2.26,2-6,2-11.13Z"/><path class="cls-1" d="M432.46,299.91v-1.47a37.85,37.85,0,0,1-5.92,5.59,22,22,0,0,1-6.32,3.27,23.59,23.59,0,0,1-7.44,1.12,22.07,22.07,0,0,1-9.9-2.26A23.3,23.3,0,0,1,395,299.7a29.7,29.7,0,0,1-5-9.87,42.31,42.31,0,0,1-1.72-12.27q0-13.95,6.82-21.75T413,248a24.17,24.17,0,0,1,10.85,2.21,30.34,30.34,0,0,1,8.61,6.79V235c0-3.06.61-5.36,1.82-6.93a6.23,6.23,0,0,1,5.21-2.34,6.48,6.48,0,0,1,5.21,2.15c1.22,1.44,1.82,3.56,1.82,6.35v65.64q0,4.26-2,6.38a6.58,6.58,0,0,1-5.07,2.13,6.49,6.49,0,0,1-5-2.21A9.07,9.07,0,0,1,432.46,299.91Zm-29.28-21.86a25.49,25.49,0,0,0,1.88,10.31,14.33,14.33,0,0,0,5.16,6.4,12.69,12.69,0,0,0,7.14,2.16,13.24,13.24,0,0,0,7.17-2.05,14,14,0,0,0,5.17-6.27,25.17,25.17,0,0,0,1.94-10.55,24.49,24.49,0,0,0-1.94-10.22,15.37,15.37,0,0,0-5.23-6.54,12.48,12.48,0,0,0-7.22-2.27,12.24,12.24,0,0,0-7.31,2.32,14.92,14.92,0,0,0-5,6.65A26.5,26.5,0,0,0,403.18,278.05Z"/><path class="cls-1" d="M503,281.81H473.89a19.73,19.73,0,0,0,2.05,8.94,13.64,13.64,0,0,0,12.56,7.8,17.75,17.75,0,0,0,4.88-.63,15.67,15.67,0,0,0,4.28-2,33.05,33.05,0,0,0,3.82-2.86q1.74-1.53,4.52-4.14a4.88,4.88,0,0,1,3.27-1,5.36,5.36,0,0,1,3.71,1.26,4.47,4.47,0,0,1,1.42,3.54,9.72,9.72,0,0,1-1.58,4.72,19,19,0,0,1-4.77,5.18,27.29,27.29,0,0,1-8,4.11,34.46,34.46,0,0,1-11.09,1.64q-14.34,0-22.3-8.18t-8-22.19a37.26,37.26,0,0,1,2-12.24,27,27,0,0,1,5.73-9.67,24.79,24.79,0,0,1,9.27-6.19,33.17,33.17,0,0,1,12.21-2.16,29,29,0,0,1,15,3.68,24.26,24.26,0,0,1,9.35,9.52,25,25,0,0,1,3.11,11.88c0,3.75-1.07,6.17-3.22,7.28S506.89,281.81,503,281.81Zm-29.11-8.45h27q-.56-7.62-4.12-11.42a12.33,12.33,0,0,0-9.4-3.79,11.88,11.88,0,0,0-9.13,3.85Q474.66,265.84,473.89,273.36Z"/><path class="cls-1" d="M68.77,251a14.77,14.77,0,0,1,1.16-2.15c.9-1.62,1.65-3,2.25-4.13a94.62,94.62,0,0,1,28.42-4.8,34.85,34.85,0,0,1,8,.9,12.75,12.75,0,0,1,5.92,3,13.71,13.71,0,0,1,3.5,6.19,57.45,57.45,0,0,1,2,10l1,8.07,3,20.85a157.93,157.93,0,0,0,3.77,19.82q-14.27,4.17-20.23,7,0-5.07-1.43-27.54-8.38-.53-11.39-.53c-2.15.09-5,.23-8.5.42l-9.84.56q-17,18.79-27.49,24.89t-19.77,6.14q-9,0-14.71-4.48T8.73,306q0-5.47,6-12.2a54.33,54.33,0,0,1,15.83-11.7q9.82-5,23.36-5,3.22,0,6.17.18c2,.12,4.17.31,6.63.58s5,.58,7.51.94l9-13q2.64-3.87,10.58-17.63-5.3.14-11.73.9T68.77,251ZM31.1,290.48a17.15,17.15,0,0,0-3.49,9.91q0,5.14,3.45,7.53a14.12,14.12,0,0,0,8.2,2.38,71.82,71.82,0,0,0,10-.95q.22-.41,5.24-5.74Q59,298.78,68.32,288.1,46.17,288.87,31.1,290.48Zm51.21-10.59q3.45.41,9.73,1.55t13.63,2.67a281.87,281.87,0,0,0-5.56-30.36Q95.17,262.67,82.31,279.89Z"/><path class="cls-1" d="M155.22,249.23V296.8h9.4v11.9H139.75V249.23Z"/><path class="cls-1" d="M205.46,249.23l-11.28,38V308.7H179.86V287.18l-10.88-38h14.21q3.33,17.41,3.75,23.44,1.29-9.53,4.31-23.44Z"/><rect class="cls-1" x="121.21" y="75.91" width="2.76" height="90.23"/><rect class="cls-1" x="385.3" y="110.58" width="2.76" height="82.95"/><path class="cls-1" d="M386.68,124.09h0c-6.17,0-11.17,3.17-11.17,7.09v42.91c0,3.92,5,7.09,11.17,7.09h0c6.17,0,11.17-3.17,11.17-7.09V131.18C397.85,127.26,392.85,124.09,386.68,124.09Z"/><rect class="cls-1" x="111.31" y="90.52" width="22.34" height="60.67" rx="6.32"/><rect class="cls-1" x="153.85" y="126.38" width="2.76" height="76.72"/><rect class="cls-1" x="418.4" y="61.83" width="2.76" height="83.66"/><path class="cls-1" d="M155.23,131.39h0c-6.17,0-11.17,4-11.17,8.92V177.8c0,4.92,5,8.91,11.17,8.91h0c6.17,0,11.18-4,11.18-8.91V140.31C166.41,135.38,161.4,131.39,155.23,131.39Z"/><path class="cls-1" d="M419.78,84.18h0c-6.17,0-11.17,2.54-11.17,5.67v45.84c0,3.13,5,5.67,11.17,5.67h0c6.17,0,11.17-2.54,11.17-5.67V89.85C431,86.72,426,84.18,419.78,84.18Z"/><path class="cls-1" d="M286.44,165.39a62.56,62.56,0,0,1-18.82,2.87,63.67,63.67,0,0,1-7.73-.47l-2.65,14.45a78.91,78.91,0,0,0,10.38.69,77.41,77.41,0,0,0,22.66-3.37Z"/><path class="cls-1" d="M328.46,121.29a63,63,0,0,1-36,41.88l5.27,13.7A77.7,77.7,0,0,0,342.39,126Z"/><path class="cls-1" d="M204.76,105.4a62.81,62.81,0,0,1,.55-8.28l-14.58-1.66a77.75,77.75,0,0,0,.94,25.55L206,117.59A62.75,62.75,0,0,1,204.76,105.4Z"/><path class="cls-1" d="M252.77,29.3a77.6,77.6,0,0,0-10.35,2.76l5.69,13.58a62.34,62.34,0,0,1,7.52-2Z"/><path class="cls-1" d="M206.92,121.79c-.1-.4-.21-.8-.3-1.2L192.35,124c.12.5.25,1,.38,1.49Z"/><path class="cls-1" d="M209,128.15l-13.61,5.49a77.72,77.72,0,0,0,18.47,27.63L224.32,151A62.79,62.79,0,0,1,209,128.15Z"/><path class="cls-1" d="M269.68,42.58a62.86,62.86,0,0,1,53.09,32.63l12.6-7.52a77.51,77.51,0,0,0-66.05-39.8Z"/><path class="cls-1" d="M330.48,105.4a64.06,64.06,0,0,1-.75,9.76l14.47,2.41a78.79,78.79,0,0,0,.95-12.17c0-.57,0-1.14,0-1.71H330.46C330.47,104.26,330.48,104.83,330.48,105.4Z"/><path class="cls-1" d="M339,75.17,325.5,80.84a62.25,62.25,0,0,1,4.58,17.46l14.54-2A77.16,77.16,0,0,0,339,75.17Z"/><path class="cls-1" d="M253.85,166.74c-1-.23-2.08-.49-3.11-.77l-5,13.83c1.55.45,3.11.86,4.69,1.22Z"/><path class="cls-1" d="M238.11,49.89a61.48,61.48,0,0,1,7.1-3.23l-5.68-13.54a77,77,0,0,0-9.33,4.37Z"/><path class="cls-1" d="M205.78,94.08A63,63,0,0,1,235.43,51.4L227.53,39a77.6,77.6,0,0,0-36.35,53.39Z"/><path class="cls-1" d="M237.75,160.72a60,60,0,0,1-5.55-3.39l-8.57,11.91a75.74,75.74,0,0,0,6.78,4.19Z"/><path class="cls-1" d="M247.8,165.07a63.78,63.78,0,0,1-7.31-2.95l-7.36,12.73a77.82,77.82,0,0,0,9.69,4Z"/><path class="cls-1" d="M266.24,27.89a78.05,78.05,0,0,0-10.44.88l2.86,14.41a64.91,64.91,0,0,1,7.95-.63Z"/><path class="cls-1" d="M267.76,191.36A86.1,86.1,0,0,1,210.43,41a.63.63,0,1,1,.84.94,84.55,84.55,0,1,0,24.4-15.26.62.62,0,0,1-.82-.34.64.64,0,0,1,.34-.83,86.11,86.11,0,1,1,32.57,165.82Z"/><path class="cls-1" d="M267.76,196.24a91,91,0,1,1,0-182,.63.63,0,0,1,0,1.26A89.72,89.72,0,1,0,350.93,139a.63.63,0,0,1,1.17.48A90.64,90.64,0,0,1,267.76,196.24Z"/><path class="cls-1" d="M267.76,202.89a97.37,97.37,0,0,1-65.84-25.55.63.63,0,0,1,.85-.93A96.36,96.36,0,0,0,334.63,35.88a.62.62,0,0,1,0-.89.63.63,0,0,1,.89,0,97.63,97.63,0,0,1-67.74,167.92Z"/><path class="cls-1" d="M288.06,92.45a56.53,56.53,0,0,1-13.17,8.61L269.05,91l-8.47,14.67-1.8.31h0l-.18,0-.19,0a68.3,68.3,0,0,1-10.8.86c-2.24,0-4.51-.11-6.75-.33l18.6-32.21,9.6-16.64,9.61,16.64,10.1,17.49Z"/><path class="cls-1" d="M287.84,123.48h0l-4.29-7.43c2-1.86,3.86-3.82,5.67-5.86a91.69,91.69,0,0,0,5.88-7.4L316,138.94Z"/><path class="cls-1" d="M308.4,62.21c-3.6,34.82-30.46,64.66-64.57,73.59l-.16,0a96.36,96.36,0,0,1-21,3l1.29-2.23a94.61,94.61,0,0,0,20.32-3l.16,0c33.49-8.79,59.67-38.8,64-71.39Z"/><path class="cls-1" d="M308.51,61.35c-3.95,32.92-30.29,63.38-64.08,72.25l-.16,0a94.64,94.64,0,0,1-20.82,3l16.18-28a71,71,0,0,0,19.12-.45l.39-.06a60.72,60.72,0,0,0,14.34-4,58,58,0,0,0,16.06-10,61.16,61.16,0,0,0,8.74-9.91A79.94,79.94,0,0,0,308.51,61.35Z"/><polygon class="cls-1" points="273.06 101.88 269.05 101.88 269.05 94.95 273.06 101.88"/><polygon class="cls-1" points="269.05 94.95 269.05 101.88 265.05 101.88 269.05 94.95"/></svg>