<svg id="Capa_1" data-name="Capa 1" xmlns="http://www.w3.org/2000/svg" viewBox="0 0 288 288"><defs><style>.cls-1{fill:#fff;}</style></defs><g id="Grupo_1108" data-name="Grupo 1108"><path id="Trazado_394" data-name="Trazado 394" class="cls-1" d="M77.49,112.25A9.47,9.47,0,0,1,68,102.78V96.31A9.47,9.47,0,0,1,87,96.14v6.64A9.47,9.47,0,0,1,77.49,112.25Z"/></g><g id="Grupo_1109" data-name="Grupo 1109"><path id="Trazado_395" data-name="Trazado 395" class="cls-1" d="M247.89,260.8H103.46a33.14,33.14,0,0,1-30.84-35v-37.9A8.74,8.74,0,1,1,90,185.7a9.24,9.24,0,0,1,0,2.23v37.9a14.51,14.51,0,0,0,13.51,15.33H247.89a14.53,14.53,0,0,0,13.51-15.33V62.15a14.52,14.52,0,0,0-13.51-15.31H103.46A14.51,14.51,0,0,0,90,62.15a8.74,8.74,0,0,1-17.33,2.24,9.33,9.33,0,0,1,0-2.24A33.14,33.14,0,0,1,103.46,27.2H247.89a33.13,33.13,0,0,1,30.85,35V225.83A33.14,33.14,0,0,1,247.89,260.8Z"/></g><g id="Grupo_1110" data-name="Grupo 1110"><path id="Trazado_396" data-name="Trazado 396" class="cls-1" d="M201.24,153.49H18.68a9.48,9.48,0,0,1,0-19H201.24a9.48,9.48,0,0,1,0,19Z"/></g><g id="Grupo_1111" data-name="Grupo 1111"><path id="Trazado_397" data-name="Trazado 397" class="cls-1" d="M152.56,208.09a9.47,9.47,0,0,1-6.45-16.42L197.56,144,146.11,96.31A9.48,9.48,0,0,1,159,82.4L217.94,137a9.45,9.45,0,0,1,.53,13.35c-.17.19-.35.37-.53.54L159,205.54A9.4,9.4,0,0,1,152.56,208.09Z"/></g></svg>