<svg xmlns="http://www.w3.org/2000/svg" viewBox="0 0 1163.67 284.03"><defs><style>.cls-1{fill:#fff;}</style></defs><g id="Capa_2" data-name="Capa 2"><g id="Powered_By_AlySystem" data-name="Powered By AlySystem"><path class="cls-1" d="M157.86,132q-14.07,1.67-29.29,4.43l3-4.72q2.88-5.2,4.82-8.87,32.67-10.32,61.11-10.32a75.45,75.45,0,0,1,17.26,1.93,27.16,27.16,0,0,1,12.72,6.46q4.83,4.44,7.52,13.3a121.17,121.17,0,0,1,4.34,21.5l2.22,17.35L248,217.9q3.86,27.47,8.09,42.61h0q-30.65,9-43.47,15,0-10.89-3.09-59.19h0q-18-1.16-24.48-1.16-6.94.28-18.27.92l-21.16,1.2q-36.63,40.4-59.09,53.5Q63.9,284,44.05,284q-19.27,0-31.61-9.64T0,254.44q0-11.77,13-26.22,12.83-14.28,34-25.17,21.12-10.7,50.23-10.7,6.95,0,13.25.39T124.79,194q8,.87,16.15,2L160.31,168q5.7-8.29,22.75-37.89h0Q171.69,130.37,157.86,132ZM48.1,221.18q-7.51,10.69-7.52,21.3,0,11.09,7.43,16.2a30.37,30.37,0,0,0,17.64,5.11,154.43,154.43,0,0,0,21.4-2q.48-.87,11.28-12.34,9.83-10.41,29.78-33.35h0Q80.48,217.71,48.1,221.18Zm110.1-22.76h0q7.43.87,20.91,3.32t29.3,5.74h0a604.42,604.42,0,0,0-12-65.25Q185.85,161.4,158.2,198.42Z"/><path class="cls-1" d="M319.87,131.35V233.86h20.26v25.65H286.55V131.35Z"/><path class="cls-1" d="M443.83,131.35l-24.3,81.77v46.39H388.66V213.12l-23.43-81.77h30.61q7.17,37.53,8.09,50.5,2.77-20.5,9.28-50.5Z"/><path class="cls-1" d="M693.21,131.94l-24.3,81.77V260.1H638V213.71l-23.43-81.77h30.61q7.18,37.53,8.1,50.51,2.76-20.52,9.28-50.51Z"/><path class="cls-1" d="M792.49,170.73h-31v-9.5q0-6.64-1.18-8.47a4.37,4.37,0,0,0-4-1.82,5,5,0,0,0-4.55,2.46q-1.55,2.46-1.55,7.44,0,6.42,1.74,9.67c1.1,2.16,4.24,4.78,9.42,7.83q22.24,13.22,28,21.68t5.78,27.31q0,13.69-3.21,20.18T779.66,258.4a49,49,0,0,1-21.37,4.39q-13.38,0-22.84-5.07t-12.39-12.9q-2.92-7.83-2.92-22.24v-8.39h31v15.59c0,4.81.43,7.89,1.3,9.26s2.42,2.06,4.63,2.06a5.43,5.43,0,0,0,5-2.61q1.62-2.61,1.62-7.76,0-11.31-3.08-14.8t-15.6-11.64q-12.42-8.22-16.46-11.95a28,28,0,0,1-6.69-10.29q-2.65-6.57-2.65-16.78,0-14.73,3.76-21.53T735,133.09q8.38-3.84,20.26-3.84,13,0,22.13,4.2T789.52,144q3,6.36,3,21.64Z"/><path class="cls-1" d="M894.29,131.94v25.65H874.5V260.1H841.18V157.59H821.47V131.94Z"/><path class="cls-1" d="M928.1,131.94h55.56v25.65H961.42v24.3h20.82v24.38H961.42v28.18h24.46V260.1H928.1Z"/><path class="cls-1" d="M1120.29,131.94V260.1h-29.13l0-86.52-11.59,86.52h-20.66l-12.23-84.54,0,84.54h-29.13V131.94h43.12q1.92,11.56,4,27.25l4.74,32.6,7.66-59.85Z"/><path class="cls-1" d="M1144.18,90.49a19.5,19.5,0,1,0,19.49,19.5A19.5,19.5,0,0,0,1144.18,90.49Zm0,35.75A16.25,16.25,0,1,1,1160.42,110,16.25,16.25,0,0,1,1144.18,126.24Z"/><path class="cls-1" d="M1137.34,120.17V98.73h7.47a10.48,10.48,0,0,1,4.09.58,4.5,4.5,0,0,1,2,2,6.85,6.85,0,0,1,.79,3.41,6.42,6.42,0,0,1-1.2,4,5.39,5.39,0,0,1-3.43,1.93,8.49,8.49,0,0,1,1.88,1.79,24.29,24.29,0,0,1,2,3.49l2.14,4.18h-4.23l-2.57-4.67a32.26,32.26,0,0,0-1.88-3.16,2.81,2.81,0,0,0-1.06-.88,4.81,4.81,0,0,0-1.78-.24h-.73v9Zm3.54-12.37h2.63a13.28,13.28,0,0,0,3.07-.21,2,2,0,0,0,1.07-.86,3.18,3.18,0,0,0,.41-1.71,3,3,0,0,0-.41-1.64,2.14,2.14,0,0,0-1.11-.86,14,14,0,0,0-2.88-.16h-2.78Z"/><path class="cls-1" d="M562.89,103.7h15.42Q594.6,115.37,594.6,138a42.08,42.08,0,0,1-2.6,14.56Q577.74,137.93,568.29,135a59.3,59.3,0,0,0-16.49-2.89q-4.81,0-6,.48c-.7.39-1.19,1.77-1.44,4.15a40.21,40.21,0,0,0-.58,6.46,39.77,39.77,0,0,0,1.83,10.6q1.74,6.66,6.46,8.48a89.38,89.38,0,0,0,10.8,3.86q6.25,1.94,19.47,3.47,8.58,1,11.76,2.12a14.38,14.38,0,0,1,5.5,4.34q2.88,3.47,8.29,13c-9.71,36.64-30.39,58.78-79.49,77.81L508.85,272c-10.09,0-19.85-3.46-30.39-10.6-9.85-6.58-21.66-16.77-30.75-25.73-1.26-1.25-7.54-8.32-7.94-9-7.26-12.46-.08-19.28-.08-19.28q34.69,11.19,78,36.34Q528.27,250,529.92,250q10.7,0,25.64-9.45,14.75-9.34,14.75-22.85,0-6-3.95-8.77-3.86-2.5-15.62-4.43-18.6-2.89-27.57-13.4t-9-21.88q0-13.78,13.69-37.31Q541.39,108.52,562.89,103.7Z"/><path class="cls-1" d="M408.18,32.41V50.9H392.33V0h21.74q8.13,0,12.36,1.86a15.14,15.14,0,0,1,6.72,5.71,15.56,15.56,0,0,1,2.48,8.61,14.89,14.89,0,0,1-5.08,11.75Q425.48,32.4,417,32.41ZM408,21.48h5.22q6.9,0,6.9-5.07c0-3.18-2.13-4.78-6.38-4.78H408Z"/><path class="cls-1" d="M458.45,51.69q-9.43,0-15-5.88A19.38,19.38,0,0,1,437.9,32a19,19,0,0,1,5.8-14.17q5.81-5.67,15.08-5.67t15.05,5.6a18.86,18.86,0,0,1,5.69,14A19.13,19.13,0,0,1,473.76,46Q468,51.69,458.45,51.69Zm.22-9c2.31,0,3.73-1.2,4.24-3.6a36.71,36.71,0,0,0,.76-7.51q0-5.34-1.08-7.68a3.91,3.91,0,0,0-3.88-2.35,4,4,0,0,0-3.77,2.42q-1.19,2.43-1.19,8,0,6.53,1.23,8.63A4,4,0,0,0,458.67,42.66Z"/><path class="cls-1" d="M536.5,13l-12,37.92H513.79l-5-20.54L503.64,50.9H493.06L480.82,13h14.62l5,18.57L505.22,13h11l4.7,18.55L526.17,13Z"/><path class="cls-1" d="M564.92,37.29l13.87.93a16.36,16.36,0,0,1-6.29,9.53q-5.06,3.93-13.66,3.94-9.58,0-15.29-5.54a18.35,18.35,0,0,1-5.71-13.74,19.94,19.94,0,0,1,5.63-14.36q5.64-5.85,15-5.86,9.11,0,14.71,5.52t5.61,15c0,.52,0,1.25,0,2.16h-25.4a9.83,9.83,0,0,0,1.27,5.32q1.19,1.72,4.55,1.73Q564.06,42,564.92,37.29Zm-1-9.84c0-2.56-.54-4.29-1.54-5.17A5.48,5.48,0,0,0,558.63,21q-5.28,0-5.28,6.49Z"/><path class="cls-1" d="M598.89,50.9H584.64V13H597v7.83q2.13-8.53,9.88-8.54a21.25,21.25,0,0,1,2.17.15V25.66a12.26,12.26,0,0,0-2.8-.38q-7.38,0-7.38,8.24Z"/><path class="cls-1" d="M638.83,37.29l13.87.93a16.36,16.36,0,0,1-6.29,9.53q-5,3.93-13.66,3.94-9.59,0-15.29-5.54a18.35,18.35,0,0,1-5.71-13.74,19.94,19.94,0,0,1,5.63-14.36q5.64-5.85,15-5.86,9.11,0,14.71,5.52t5.62,15c0,.52,0,1.25,0,2.16H627.3a9.83,9.83,0,0,0,1.27,5.32c.8,1.15,2.31,1.73,4.55,1.73Q638,42,638.83,37.29Zm-1-9.84c0-2.56-.54-4.29-1.54-5.17A5.48,5.48,0,0,0,632.54,21c-3.52,0-5.27,2.16-5.27,6.49Z"/><path class="cls-1" d="M695.58,50.9H681.64v-5q-3.1,5.82-10.22,5.82a13,13,0,0,1-10.65-5.13q-4.08-5.13-4.08-14.9,0-9.14,4.1-14.51a13,13,0,0,1,10.85-5.37,11.69,11.69,0,0,1,9.29,4.29V0h14.65ZM680.93,26.51q0-5.1-4.22-5.1-2.94,0-3.86,3.24a29.64,29.64,0,0,0-.91,7.94q0,9.21,4.7,9.21a3.88,3.88,0,0,0,3-1.45,6.7,6.7,0,0,0,1.25-4.44Z"/><path class="cls-1" d="M731,50.9h-8.39V0h14.66V17.49q3-5.29,9.73-5.3a12.88,12.88,0,0,1,8,2.47,14.41,14.41,0,0,1,4.88,7,28.81,28.81,0,0,1,1.61,9.61q0,9.16-4.1,14.78t-12.23,5.62q-8,0-12.2-6A22.73,22.73,0,0,0,731,50.9Zm6.27-14.13q0,5.59,4.32,5.59a4,4,0,0,0,3.6-2q1.25-2,1.25-8.37,0-6.9-1.42-8.67a4.32,4.32,0,0,0-3.5-1.77,4.11,4.11,0,0,0-3,1.27,4.9,4.9,0,0,0-1.3,3.69Z"/><path class="cls-1" d="M801.86,13,787,54.07a16.48,16.48,0,0,1-4.92,7.29Q778.85,64,772.18,64q-1.6,0-7.46-.33V53.1a35.32,35.32,0,0,0,5.37.45c4.28,0,6.41-.94,6.41-2.83a7.85,7.85,0,0,0-.63-2.58L762.26,13h15.91l6.28,20.23L791,13Z"/></g></g></svg>