<svg id="Capa_1" data-name="Capa 1" xmlns="http://www.w3.org/2000/svg" viewBox="0 0 288 288"><defs><style>.cls-1{fill:#fff;}</style></defs><g id="Grupo_1107" data-name="Grupo 1107"><g id="Grupo_1101" data-name="Grupo 1101"><path id="Trazado_389" data-name="Trazado 389" class="cls-1" d="M198.34,189.16a38.67,38.67,0,0,1-48.25,3.09h0a200.14,200.14,0,0,1-49.89-50.36,39.84,39.84,0,0,1,3-48.73,13,13,0,0,1,9.4-4.32,12.7,12.7,0,0,1,9.55,4L133.72,105a13.17,13.17,0,0,1-.53,18.62c-.27.26-.55.5-.84.74l-4.61,3.71a440.06,440.06,0,0,0,36,36.36l3.71-4.66a12.85,12.85,0,0,1,18-2.31,10.69,10.69,0,0,1,1.08.94l12.08,11.66a13.5,13.5,0,0,1,4,9.67A13.13,13.13,0,0,1,198.34,189.16Z"/></g><g id="Grupo_1106" data-name="Grupo 1106"><g id="Grupo_1102" data-name="Grupo 1102"><path id="Trazado_390" data-name="Trazado 390" class="cls-1" d="M34.35,263.47a9.84,9.84,0,0,1-9.25-13.22l16.39-44.92A119.47,119.47,0,1,1,144,263.47h-3a9.84,9.84,0,0,1-9.56-10.08,9.64,9.64,0,0,1,9.71-9.57H144a99.88,99.88,0,1,0-83.37-45,9.82,9.82,0,0,1,1,8.79l-11,30.26,31.51-10.6a9.8,9.8,0,0,1,8.43,1c2.67,1.72,5.46,3.29,8.26,4.77a9.84,9.84,0,1,1-8.58,17.72l-.38-.19c-1.93-1-3.87-2.06-5.77-3.19L37.55,263.09A9.89,9.89,0,0,1,34.35,263.47Z"/></g><g id="Grupo_1103" data-name="Grupo 1103"><path id="Trazado_391" data-name="Trazado 391" class="cls-1" d="M117.6,260.05a10.66,10.66,0,0,1-2.52-.3l-1.35-.36A10.29,10.29,0,1,1,119,239.5l1,.27a10.29,10.29,0,0,1-2.48,20.28Z"/></g></g></g></svg>